PathFileType	4	(X/Y/Z)	C:\Users\°ÂÌØÂü\Desktop\20210112\bx_y_0_1801-Unnamed.trc
DataRate	CameraRate	NumFrames	NumMarkers	Units	OrigDataRate	OrigDataStartFrame	OrigNumFrames
50.00	50.00	       8	0	mm	50.00	89	       708
Frame#	Time	
		

89	1.760	-692.40723	-77.07949	1542.57373	-590.97705	221.47519	1068.14917	-591.15521	-1.45280	800.73041	-646.49548	281.67667	876.46930	-588.42499	217.09306	813.72473	-696.34656	273.43555	746.48138	-728.57483	249.20551	644.35455	-691.83252	143.70332	571.94202	-732.71112	245.57567	577.33740	-673.45111	20.58276	518.81549	-772.53198	253.47633	503.36688	-677.57660	205.89485	532.28955				-663.51697	-66.69833	163.41385	-711.39240	151.92715	216.10622	-882.63568	296.12158	144.50882	-674.80316	56.93301	156.46712	-603.22620	20.42534	165.76936	-594.41144	222.55737	173.38995	-667.17609	299.09473	159.92735	-629.90149	307.24197	162.35501	-561.01257	261.79959	166.41177	-528.08600	304.15735	146.47820	-686.98560	107.91380	1852.32007	-718.90076	290.14066	1533.47693	-622.41614	-77.69263	159.21767	-517.60974	-72.42404	142.65575	-795.90802	172.20782	183.97916	-771.09485	221.91939	205.28123	-798.68420	96.60978	1058.40149	-766.80170	-4.94846	207.38815	-794.68793	56.09473	174.83617	-767.41602	-34.42344	487.78036	-559.41687	-39.69407	164.34541	-875.61420	-78.86797	141.32495	-598.60718	-5.57967	1047.47668	-707.42975	-27.08206	613.72687	-721.66772	-24.38968	567.09393	-674.78009	171.57333	156.93513	-697.78516	81.11300	573.50171	-699.09253	-49.45567	715.64020	-661.03894	-67.88470	855.70648	-717.06946	78.93340	216.40732	
90	1.780	-691.89532	-77.22819	1542.77026	-592.09937	221.23572	1068.18762	-591.58331	-1.62547	801.04077	-647.53021	281.99884	876.63019	-589.35242	217.40814	813.38269	-696.81158	273.52045	746.48834	-728.69678	249.18132	644.22345	-691.67029	143.39655	571.94659	-732.70935	245.03493	577.25903	-673.56940	20.54188	519.19647	-772.60376	253.31335	503.39716	-677.34753	205.87906	532.26190				-663.63641	-66.70638	163.40994	-711.24890	152.10129	216.18277	-882.75586	296.10339	144.51614	-674.77124	56.80680	156.59865	-603.17529	20.22421	165.94315	-594.41144	222.55737	173.38995	-667.23071	298.99176	159.81427	-629.90149	307.24197	162.35501	-560.92432	261.73801	166.52567	-528.16150	304.17200	146.42805	-686.45984	107.91547	1852.41138	-718.52130	290.01807	1533.63538	-622.36713	-77.67472	159.03438	-517.53375	-72.60553	142.85709	-795.85693	172.22313	183.95586	-771.12177	221.92505	205.69907	-799.27631	96.53188	1058.60571	-766.78394	-4.86396	207.43463	-794.61096	55.79076	174.87714	-767.56427	-34.20972	487.55231	-559.40039	-39.76630	164.32271	-875.61420	-78.86797	141.32495	-599.17926	-5.26634	1047.60034	-707.41437	-26.99761	613.80414	-721.86133	-24.29747	566.86853	-675.06940	171.80861	156.61862	-697.58606	80.93631	573.14404	-699.46460	-49.31408	715.51947	-661.53107	-68.02772	856.34204	-717.09741	78.77705	216.71869	
91	1.800	-691.14203	-76.97701	1542.93616	-592.82825	221.55754	1068.07031	-591.87964	-1.80936	801.22821	-647.62280	282.57608	877.38226	-589.85852	217.37589	813.67761	-696.98224	273.52539	746.59082	-729.00830	248.84549	643.99127	-691.07159	143.70912	572.17340	-732.70935	245.03493	577.25903	-673.36035	20.29185	519.39661	-772.35828	253.23929	503.25183	-677.26910	206.00443	532.30005				-663.60016	-66.78503	163.45209	-711.22107	151.66533	216.30823	-882.65717	296.21088	144.56999	-674.85425	56.89158	156.64397	-603.35541	20.34041	166.13960	-594.41144	222.55737	173.38995	-667.18073	299.02939	160.09406	-629.88843	307.39404	162.51454	-561.04913	261.82367	166.37460	-528.00299	304.30740	146.63148	-685.13110	108.36870	1852.77063	-718.34558	290.08734	1533.80176	-622.36713	-77.67472	159.03438	-517.38306	-72.39369	143.02922	-795.90802	172.20782	183.97916	-771.07635	221.71199	205.60799	-799.86005	96.38694	1058.94312	-766.92548	-4.92215	207.43340	-794.60004	55.90270	174.77133	-767.41602	-34.42344	487.78036	-559.56213	-39.74477	164.36354	-875.99139	-78.70409	141.37393	-599.97388	-5.07817	1047.70862	-708.03564	-27.03206	613.94214	-721.97577	-24.32031	566.98541	-675.04773	171.62137	156.88675	-697.59979	81.03541	572.98163	-700.29858	-49.55611	715.97083	-662.34625	-67.79173	856.04694	-717.09741	78.77705	216.71869	
92	1.820	-690.69550	-77.03044	1543.14880	-593.67834	220.89922	1067.95532	-592.59430	-1.78020	801.43622	-648.43317	282.50058	877.06665	-590.32953	217.37820	813.83569	-697.08313	273.69083	746.78589	-728.96063	248.81787	644.09674	-691.07159	143.70912	572.17340	-732.21844	244.89040	577.16022	-673.59668	20.22127	519.46320	-771.96552	253.10110	503.18729	-676.74323	205.63451	532.58282				-663.71735	-66.82872	163.52142	-711.27167	151.91408	216.07718	-882.59625	296.22037	144.63243	-674.85425	56.89158	156.64397	-603.21844	20.25523	166.04424	-594.34760	222.52380	173.44708	-667.17609	299.09473	159.92735	-629.88062	307.43954	162.43614	-561.00903	261.72266	166.38998	-527.99475	304.39630	146.60587	-683.98663	108.49324	1852.90454	-717.29077	289.83508	1534.24988	-622.46857	-77.72392	159.13622	-517.41864	-72.46439	143.13046	-795.85278	172.16418	184.01628	-771.09314	221.78609	205.66370	-800.76495	96.69703	1059.15479	-766.82629	-5.01498	207.40492	-794.59064	55.69471	174.94095	-767.67596	-34.33138	487.90768	-559.54303	-39.67108	164.48926	-875.84631	-78.84808	141.09875	-600.95642	-4.78074	1047.47815	-708.34064	-27.01013	614.07751	-722.16693	-24.37207	567.01111	-674.78009	171.57333	156.93513	-697.33563	81.11790	572.89691	-700.81073	-49.43739	715.45874	-663.31378	-68.09894	856.05750	-717.09741	78.77705	216.71869	
93	1.840	-689.91168	-76.86116	1543.46704	-594.90173	220.62712	1068.23438	-593.01367	-2.14222	801.24805	-649.40283	282.14020	877.00073	-590.25055	217.88327	814.74420	-697.49530	273.56290	747.09070	-729.15857	248.54790	643.99023	-690.31219	143.73636	572.59247	-731.80786	244.58556	577.06989	-673.59668	20.22127	519.46320	-771.82367	253.05392	503.15787	-676.45673	205.85606	532.60052				-663.53247	-66.73511	163.39021	-710.96527	151.86995	216.39471	-882.58575	296.13757	144.56622	-674.83264	56.77600	156.78123	-603.12079	20.07721	166.05818	-594.34705	222.48465	173.45000	-667.12939	299.08673	160.08504	-629.88843	307.39404	162.51454	-560.90588	261.69659	166.34552	-528.11450	304.37653	146.40186	-682.69391	108.48241	1853.04919	-716.82422	289.90045	1534.45166	-622.36713	-77.67472	159.03438	-517.34576	-72.71044	143.18416	-795.90802	172.20782	183.97916	-771.28192	221.90607	205.60307	-801.75391	96.48344	1059.35425	-766.84552	-5.09591	207.35342	-794.60980	55.73286	174.81201	-767.86029	-34.19458	487.94049	-559.54907	-39.54309	164.28606	-876.00970	-78.74700	141.30463	-601.76617	-4.89081	1047.61584	-708.68915	-27.12969	614.12518	-722.49475	-24.05302	566.70917	-674.83221	171.80080	157.02878	-697.45392	81.11169	573.06488	-701.70544	-49.34770	715.75873	-664.04529	-68.35072	856.15051	-717.09741	78.77705	216.71869	
94	1.860	-689.30524	-76.73626	1543.56213	-595.47955	220.78619	1068.90808	-593.53839	-2.56932	801.51501				-590.62469	218.23973	815.24146	-698.16205	273.45389	747.37708	-729.20850	248.52518	644.08795	-689.94202	143.99199	572.74463	-731.77295	244.70541	577.26941	-673.59668	20.22127	519.46320	-771.44977	253.13194	503.13937	-676.31073	205.75371	532.55994				-663.60016	-66.78503	163.45209	-711.01306	151.65941	216.52956	-882.64172	295.97809	144.42909	-674.85425	56.89158	156.64397	-603.27881	20.39616	165.92097	-594.41144	222.55737	173.38995	-666.95508	298.90457	160.23149	-629.88843	307.39404	162.51454	-560.89136	261.84149	166.39401	-527.99017	304.09348	146.41525	-681.32306	108.37405	1853.22351	-716.28693	289.95178	1534.55042	-622.36713	-77.67472	159.03438	-517.77618	-72.50307	142.50648	-795.89417	172.13065	183.91948	-770.88885	222.11702	205.69662	-802.81848	96.51326	1059.61487	-766.90973	-5.00371	207.37880	-794.64038	55.90264	174.70953	-768.17981	-34.12856	487.92999	-559.68451	-39.42085	163.99411	-876.00970	-78.74700	141.30463	-602.64429	-4.99526	1047.62170	-708.96124	-27.14996	613.94153	-722.61981	-24.11601	566.79425	-674.58844	171.64180	156.97386	-697.33563	81.11790	572.89691	-702.13489	-49.42521	716.13507	-664.86511	-67.80035	855.95313	-717.09741	78.77705	216.71869	
95	1.880	-688.56860	-76.91898	1543.83691	-596.44385	220.71825	1069.11768	-594.70325	-2.62984	801.72229	-651.03333	282.68558	877.69379	-591.15515	218.45244	815.46350	-698.36835	273.49854	747.37006	-729.10895	248.52847	644.08929	-689.37219	144.21959	572.86780	-731.63885	244.51582	577.13000	-673.80096	20.10479	519.47736	-771.30164	253.01010	503.21411	-675.78796	205.45276	532.98218				-663.52124	-66.87612	163.35742	-711.00543	151.91940	216.29137	-882.58575	296.13757	144.56622	-674.70770	56.68000	156.88683	-603.35529	20.26964	166.09575	-594.28320	222.45108	173.50713	-666.94482	298.73148	160.11858	-629.96539	307.31580	162.38359	-560.85120	261.74048	166.40939	-528.24908	304.32480	146.46544	-679.82080	108.73208	1853.39844	-715.37341	290.18222	1535.13330	-622.44153	-77.59417	158.96098	-517.29968	-72.80769	143.07825	-795.90802	172.20782	183.97916	-771.14490	221.99490	205.61852	-803.98950	96.26412	1059.67810	-767.00507	-5.01023	207.42816	-794.58600	55.76249	174.87578	-768.30750	-34.23891	487.92194	-559.66724	-39.63813	164.41835	-875.61420	-78.86797	141.32495	-603.84845	-5.18932	1047.80273	-709.22186	-27.05138	614.01959	-722.78809	-23.82415	566.58038	-674.82471	171.66602	156.66504	-697.37823	80.88886	573.16901	-703.41772	-49.66702	716.17578	-665.85834	-67.96400	856.65881	-717.09741	78.77705	216.71869	
96	1.900	-687.41058	-77.11493	1543.94885	-597.91510	220.72446	1069.01465	-595.04803	-2.70874	802.33838	-651.78815	283.00153	877.72229	-591.50610	218.51906	815.70825	-699.11890	273.20407	746.93164	-729.34332	248.31335	643.99988	-689.28241	144.38991	573.03400	-731.63885	244.51582	577.13000	-673.79462	20.02835	519.59802	-771.21686	252.76613	503.10190	-675.47430	205.44878	533.11658				-663.59277	-66.86308	163.35612	-710.94696	152.13055	216.31792	-882.71558	296.15268	144.61868	-674.70770	56.68000	156.88683	-603.39844	20.30065	166.19682	-594.28320	222.45108	173.50713	-666.85400	298.92068	160.23622	-629.95233	307.46786	162.54312	-560.81763	261.62939	166.40749	-528.11450	304.37653	146.40186	-678.28571	108.68861	1853.44751	-714.71503	290.00064	1535.29688	-622.29492	-77.72618	159.06377	-517.72015	-72.88586	142.72130	-795.94550	172.21333	183.91669	-770.74402	222.14595	205.79680	-804.78778	96.44727	1059.94714	-767.02881	-5.13251	207.37756	-794.59064	55.69471	174.94095	-768.38464	-34.01767	487.64575	-559.88678	-39.55857	164.13957	-875.86237	-78.63821	141.63882	-605.80566	-4.13055	1047.71729	-709.75604	-27.22957	614.38727	-722.95978	-23.86628	566.70624	-674.87714	171.55809	156.79433	-697.38684	80.78923	573.36188	-704.30127	-49.59380	716.28058	-666.80914	-67.58548	856.65930	-717.09741	78.77705	216.71869	
